<svg width="122" height="29" viewBox="0 0 122 29" fill="none" xmlns="http://www.w3.org/2000/svg">
<path d="M1.27914 23V6.84175H12.3371C14.1178 6.84175 15.4552 7.20815 16.3492 7.94095C17.2432 8.67375 17.6902 9.74731 17.6902 11.1616C17.6902 11.8944 17.5253 12.5576 17.1956 13.1512C16.8731 13.7447 16.4335 14.1991 15.8765 14.5142C17.5107 15.159 18.3277 16.3901 18.3277 18.2075C18.3277 18.9183 18.2215 19.5558 18.009 20.1201C17.8038 20.677 17.474 21.179 17.0197 21.626C16.5654 22.0657 15.9425 22.4064 15.1511 22.6483C14.367 22.8828 13.429 23 12.3371 23H1.27914ZM5.35718 19.4606H11.5457C11.6849 19.4606 11.7875 19.4606 11.8535 19.4606C11.9267 19.4606 12.0403 19.4569 12.1942 19.4496C12.3481 19.4349 12.4727 19.4203 12.5679 19.4056C12.6632 19.3836 12.7804 19.3543 12.9197 19.3177C13.0662 19.281 13.1835 19.2371 13.2714 19.1858C13.3594 19.1272 13.4546 19.0539 13.5572 18.9659C13.6598 18.878 13.7404 18.7827 13.799 18.6801C13.8577 18.5702 13.9053 18.4383 13.9419 18.2844C13.9859 18.1305 14.0079 17.962 14.0079 17.7788C14.0079 17.537 13.9712 17.3281 13.898 17.1523C13.8247 16.9691 13.7111 16.8262 13.5572 16.7236C13.4107 16.6136 13.2678 16.5257 13.1285 16.4598C12.9893 16.3938 12.8024 16.3498 12.5679 16.3279C12.3408 16.3059 12.1612 16.2912 12.0293 16.2839C11.9047 16.2766 11.7289 16.2729 11.5017 16.2729H5.35718V19.4606ZM5.35718 13.1182H11.5896C11.7728 13.1182 11.9231 13.1145 12.0403 13.1072C12.1576 13.0999 12.3261 13.0742 12.5459 13.0303C12.7658 12.979 12.9417 12.9057 13.0736 12.8104C13.2128 12.7151 13.3337 12.5723 13.4363 12.3817C13.5462 12.1839 13.6012 11.9494 13.6012 11.6782C13.6012 11.4804 13.5719 11.3045 13.5132 11.1506C13.4619 10.9967 13.396 10.8722 13.3154 10.7769C13.2348 10.6816 13.1249 10.601 12.9856 10.5351C12.8464 10.4618 12.7218 10.4105 12.6119 10.3812C12.5093 10.3445 12.3664 10.3189 12.1832 10.3042C12.0073 10.2822 11.8718 10.2713 11.7765 10.2713C11.6886 10.2639 11.5603 10.2603 11.3918 10.2603H5.35718V13.1182ZM26.2758 23.4507C23.9016 23.4507 22.0183 22.9084 20.626 21.8239C19.241 20.732 18.5485 19.1894 18.5485 17.1962C18.5485 15.8625 18.8562 14.7194 19.4718 13.7667C20.0873 12.8067 20.9447 12.0886 22.0439 11.6123C23.1431 11.1286 24.4329 10.8868 25.9131 10.8868C26.9683 10.8868 27.932 11.0041 28.804 11.2386C29.676 11.4731 30.4528 11.8321 31.1343 12.3158C31.8158 12.7921 32.3471 13.4333 32.7282 14.2394C33.1092 15.0455 33.2997 15.9834 33.2997 17.0533V17.9767H22.6045C22.7364 18.7534 23.1285 19.3433 23.7807 19.7464C24.4402 20.1421 25.2646 20.3399 26.2539 20.3399C27.8147 20.3399 28.848 19.8526 29.3536 18.878L33.3217 19.3507C32.3398 22.084 29.9911 23.4507 26.2758 23.4507ZM22.8463 15.2067H29.1118C28.8993 14.701 28.5329 14.3163 28.0126 14.0525C27.4996 13.7887 26.8804 13.6568 26.1549 13.6568C24.4475 13.6568 23.3446 14.1734 22.8463 15.2067ZM38.9725 23.4507C37.6974 23.4507 36.7228 23.1429 36.0486 22.5273C35.3818 21.9045 35.0483 20.9811 35.0483 19.7574V14.1734H33.2786V11.3595C34.2972 11.2935 35.0227 11.0224 35.455 10.5461C35.8947 10.0697 36.1659 9.26732 36.2685 8.13881H39.1044V11.3595H41.9183V14.1734H39.1044V18.4053C39.1044 19.4239 39.5404 19.9332 40.4124 19.9332C40.8961 19.9332 41.3981 19.794 41.9183 19.5155V22.7802C40.9584 23.2272 39.9764 23.4507 38.9725 23.4507ZM47.6571 23.4507C46.382 23.4507 45.4074 23.1429 44.7332 22.5273C44.0663 21.9045 43.7329 20.9811 43.7329 19.7574V14.1734H41.9632V11.3595C42.9818 11.2935 43.7073 11.0224 44.1396 10.5461C44.5793 10.0697 44.8504 9.26732 44.953 8.13881H47.789V11.3595H50.6029V14.1734H47.789V18.4053C47.789 19.4239 48.225 19.9332 49.097 19.9332C49.5807 19.9332 50.0826 19.794 50.6029 19.5155V22.7802C49.6429 23.2272 48.661 23.4507 47.6571 23.4507ZM58.507 23.4507C56.1328 23.4507 54.2495 22.9084 52.8572 21.8239C51.4722 20.732 50.7797 19.1894 50.7797 17.1962C50.7797 15.8625 51.0874 14.7194 51.703 13.7667C52.3185 12.8067 53.1759 12.0886 54.2751 11.6123C55.3743 11.1286 56.664 10.8868 58.1443 10.8868C59.1995 10.8868 60.1632 11.0041 61.0352 11.2386C61.9072 11.4731 62.684 11.8321 63.3655 12.3158C64.047 12.7921 64.5783 13.4333 64.9593 14.2394C65.3404 15.0455 65.5309 15.9834 65.5309 17.0533V17.9767H54.8357C54.9676 18.7534 55.3597 19.3433 56.0119 19.7464C56.6714 20.1421 57.4958 20.3399 58.4851 20.3399C60.0459 20.3399 61.0792 19.8526 61.5848 18.878L65.5529 19.3507C64.571 22.084 62.2223 23.4507 58.507 23.4507ZM55.0775 15.2067H61.343C61.1305 14.701 60.7641 14.3163 60.2438 14.0525C59.7308 13.7887 59.1116 13.6568 58.3861 13.6568C56.6787 13.6568 55.5758 14.1734 55.0775 15.2067ZM66.2243 23V11.3595H70.0935V13.8656H70.2584C70.4855 12.9496 70.9838 12.2278 71.7533 11.7002C72.5227 11.1726 73.4717 10.9088 74.6002 10.9088V14.734C73.0906 14.734 71.9695 15.0858 71.2367 15.7892C70.5112 16.4927 70.1485 17.6432 70.1485 19.2407V23H66.2243Z" fill="#07E4A2"/>
<path d="M81.6374 23L75.0422 6.84175H79.5929L84.3414 19.1088H85.0339L89.7825 6.84175H94.3332L87.7379 23H81.6374ZM94.367 23V11.3595H98.4011V23H94.367ZM94.3011 9.9415V6.84175H98.489V9.9415H94.3011ZM116.869 15.9102C116.869 15.2799 116.674 14.8183 116.286 14.5252C115.898 14.232 115.403 14.0855 114.802 14.0855C114.45 14.0855 114.132 14.1258 113.846 14.2064C113.567 14.287 113.303 14.4262 113.054 14.6241C112.805 14.8146 112.611 15.0967 112.472 15.4705C112.34 15.8442 112.274 16.2985 112.274 16.8335V23H108.185V15.9102C108.185 15.2726 107.987 14.811 107.591 14.5252C107.203 14.232 106.694 14.0855 106.063 14.0855C105.338 14.0855 104.737 14.3236 104.261 14.8C103.784 15.269 103.546 16.0201 103.546 17.0533V23H99.5121V11.3595H103.546V12.6895C104.015 12.1179 104.587 11.6782 105.261 11.3705C105.942 11.0627 106.697 10.9088 107.525 10.9088C109.65 10.9088 111.076 11.5097 111.801 12.7115C112.776 11.5097 114.186 10.9088 116.033 10.9088C117.565 10.9088 118.763 11.2312 119.628 11.8761C120.492 12.5136 120.925 13.4663 120.925 14.734V23H116.869V15.9102Z" fill="#07E4A2"/>
</svg>
