<svg width="42" height="6" viewBox="0 0 42 6" fill="none" xmlns="http://www.w3.org/2000/svg">
<path d="M0 5.40063V0H3.69594C4.29111 0 4.7381 0.122463 5.03691 0.36739C5.33572 0.612316 5.48513 0.971134 5.48513 1.44384C5.48513 1.68877 5.43002 1.91043 5.3198 2.10882C5.21204 2.30721 5.06508 2.45906 4.87894 2.56438C5.42512 2.77992 5.69822 3.19139 5.69822 3.79881C5.69822 4.03639 5.6627 4.24948 5.59167 4.43807C5.52309 4.62421 5.41288 4.79199 5.26102 4.94139C5.10917 5.08835 4.90098 5.20224 4.63646 5.28307C4.37439 5.36144 4.06088 5.40063 3.69594 5.40063H0ZM1.36302 4.21763H3.43142C3.47796 4.21763 3.51225 4.21763 3.53429 4.21763C3.55878 4.21763 3.59675 4.21641 3.64818 4.21396C3.69961 4.20906 3.74125 4.20416 3.77309 4.19927C3.80493 4.19192 3.84412 4.18212 3.89066 4.16987C3.93964 4.15763 3.97883 4.14293 4.00822 4.12579C4.03761 4.10619 4.06945 4.0817 4.10374 4.05231C4.13803 4.02292 4.16498 3.99108 4.18457 3.95679C4.20416 3.92005 4.22008 3.87596 4.23233 3.82453C4.24703 3.77309 4.25437 3.71676 4.25437 3.65553C4.25437 3.5747 4.24213 3.5049 4.21763 3.44612C4.19314 3.38488 4.15518 3.33712 4.10374 3.30283C4.05476 3.2661 4.007 3.2367 3.96046 3.21466C3.91393 3.19262 3.85147 3.17792 3.77309 3.17057C3.69717 3.16323 3.63716 3.15833 3.59307 3.15588C3.55143 3.15343 3.49265 3.1522 3.41672 3.1522H1.36302V4.21763ZM1.36302 2.0978H3.44612C3.50735 2.0978 3.55756 2.09657 3.59675 2.09412C3.63593 2.09167 3.69227 2.0831 3.76575 2.0684C3.83922 2.05126 3.89801 2.02677 3.94209 1.99493C3.98863 1.96309 4.02904 1.91533 4.06333 1.85164C4.10007 1.78551 4.11844 1.70714 4.11844 1.61652C4.11844 1.55038 4.10864 1.4916 4.08905 1.44017C4.0719 1.38873 4.04986 1.3471 4.02292 1.31526C3.99598 1.28341 3.95924 1.25647 3.9127 1.23443C3.86616 1.20994 3.82453 1.19279 3.78779 1.183C3.7535 1.17075 3.70574 1.16218 3.64451 1.15728C3.58572 1.14993 3.54041 1.14626 3.50857 1.14626C3.47918 1.14381 3.43632 1.14258 3.37999 1.14258H1.36302V2.0978Z" fill="#07E4A2"/>
<path d="M8.6557 5.55126C7.86214 5.55126 7.23268 5.37001 6.76732 5.00752C6.30441 4.64258 6.07295 4.12701 6.07295 3.46081C6.07295 3.01505 6.17582 2.63296 6.38156 2.31456C6.5873 1.9937 6.87386 1.75367 7.24125 1.59447C7.60864 1.43282 8.03971 1.35199 8.53446 1.35199C8.88716 1.35199 9.20924 1.39118 9.5007 1.46956C9.79216 1.54794 10.0518 1.66795 10.2796 1.8296C10.5073 1.9888 10.6849 2.20311 10.8123 2.47253C10.9396 2.74195 11.0033 3.05546 11.0033 3.41305V3.72166H7.42862C7.47271 3.98128 7.60374 4.17845 7.82173 4.31316C8.04216 4.44542 8.3177 4.51155 8.64836 4.51155C9.17005 4.51155 9.51539 4.34867 9.68439 4.02292L11.0107 4.1809C10.6825 5.09447 9.89748 5.55126 8.6557 5.55126ZM7.50945 2.79584H9.60357C9.53254 2.62684 9.41008 2.49825 9.23618 2.41008C9.06473 2.3219 8.85777 2.27782 8.61529 2.27782C8.04461 2.27782 7.676 2.45049 7.50945 2.79584Z" fill="#07E4A2"/>
<path d="M13.2003 5.55126C12.7741 5.55126 12.4484 5.44839 12.2231 5.24265C12.0002 5.03447 11.8887 4.72586 11.8887 4.31683V2.45049H11.2972V1.50997C11.6377 1.48793 11.8802 1.39731 12.0247 1.2381C12.1716 1.0789 12.2622 0.810707 12.2965 0.43352H13.2444V1.50997H14.1849V2.45049H13.2444V3.86494C13.2444 4.20539 13.3901 4.37561 13.6816 4.37561C13.8432 4.37561 14.011 4.32908 14.1849 4.236V5.32715C13.8641 5.47656 13.5359 5.55126 13.2003 5.55126Z" fill="#07E4A2"/>
<path d="M16.404 5.55126C15.9778 5.55126 15.652 5.44839 15.4267 5.24265C15.2038 5.03447 15.0924 4.72586 15.0924 4.31683V2.45049H14.5009V1.50997C14.8413 1.48793 15.0838 1.39731 15.2283 1.2381C15.3753 1.0789 15.4659 0.810707 15.5002 0.43352H16.448V1.50997H17.3886V2.45049H16.448V3.86494C16.448 4.20539 16.5938 4.37561 16.8852 4.37561C17.0469 4.37561 17.2147 4.32908 17.3886 4.236V5.32715C17.0677 5.47656 16.7395 5.55126 16.404 5.55126Z" fill="#07E4A2"/>
<path d="M20.3313 5.55126C19.5378 5.55126 18.9083 5.37001 18.443 5.00752C17.9801 4.64258 17.7486 4.12701 17.7486 3.46081C17.7486 3.01505 17.8515 2.63296 18.0572 2.31456C18.2629 1.9937 18.5495 1.75367 18.9169 1.59447C19.2843 1.43282 19.7154 1.35199 20.2101 1.35199C20.5628 1.35199 20.8849 1.39118 21.1763 1.46956C21.4678 1.54794 21.7274 1.66795 21.9552 1.8296C22.183 1.9888 22.3606 2.20311 22.4879 2.47253C22.6153 2.74195 22.679 3.05546 22.679 3.41305V3.72166H19.1043C19.1484 3.98128 19.2794 4.17845 19.4974 4.31316C19.7178 4.44542 19.9933 4.51155 20.324 4.51155C20.8457 4.51155 21.191 4.34867 21.36 4.02292L22.6863 4.1809C22.3581 5.09447 21.5731 5.55126 20.3313 5.55126ZM19.1851 2.79584H21.2792C21.2082 2.62684 21.0857 2.49825 20.9118 2.41008C20.7404 2.3219 20.5334 2.27782 20.2909 2.27782C19.7203 2.27782 19.3516 2.45049 19.1851 2.79584Z" fill="#07E4A2"/>
<path d="M23.2117 5.40063V1.50997H24.5049V2.34762H24.56C24.6359 2.04146 24.8025 1.80021 25.0597 1.62386C25.3168 1.44752 25.634 1.35934 26.0112 1.35934V2.63786C25.5066 2.63786 25.1319 2.75542 24.887 2.99055C24.6445 3.22568 24.5233 3.61022 24.5233 4.14416V5.40063H23.2117Z" fill="#07E4A2"/>
<path d="M28.267 5.40063L26.0626 0H27.5836L29.1707 4.10007H29.4022L30.9893 0H32.5103L30.306 5.40063H28.267Z" fill="#07E4A2"/>
<path d="M32.8226 5.40063V1.50997H34.1709V5.40063H32.8226ZM32.8006 1.03604V0H34.2003V1.03604H32.8006Z" fill="#07E4A2"/>
<path d="M40.6443 3.03097C40.6443 2.82033 40.5794 2.66603 40.4496 2.56805C40.3198 2.47008 40.1545 2.4211 39.9536 2.4211C39.8361 2.4211 39.7295 2.43457 39.634 2.46151C39.5409 2.48845 39.4528 2.53499 39.3695 2.60112C39.2862 2.6648 39.2213 2.7591 39.1748 2.88401C39.1307 3.00892 39.1086 3.16078 39.1086 3.33957V5.40063H37.7419V3.03097C37.7419 2.81788 37.6758 2.66358 37.5436 2.56805C37.4137 2.47008 37.2435 2.4211 37.0329 2.4211C36.7904 2.4211 36.5896 2.5007 36.4304 2.6599C36.2712 2.81666 36.1916 3.0677 36.1916 3.41305V5.40063H34.8432V1.50997H36.1916V1.95451C36.3483 1.76347 36.5394 1.61652 36.7647 1.51365C36.9925 1.41078 37.2448 1.35934 37.5215 1.35934C38.2318 1.35934 38.7082 1.56018 38.9507 1.96186C39.2764 1.56018 39.7479 1.35934 40.3651 1.35934C40.877 1.35934 41.2775 1.46711 41.5665 1.68265C41.8555 1.89573 42 2.21414 42 2.63786V5.40063H40.6443V3.03097Z" fill="#07E4A2"/>
</svg>
